/* XPM */
static char *_6a35d0ac9af405fd1e8b5251ec586d9slfXnh9cks4U7WTw[] = {
/* columns rows colors chars-per-pixel */
"64 64 9 1 ",
"  c None",
". c black",
"X c gray9",
"o c #240A3D",
"O c #472466",
"+ c gray32",
"@ c #B0192F",
"# c #6A1AB0",
"$ c #7F46B0",
/* pixels */
"    # O##O## OO  # OOO##O###OOOO#OOOOOO  #  O####               ",
"   ##O## OOOOOO # O ##  #### ##OOOOO#O######  ## ##  #          ",
"    #OOOOOOOO O#####O##$#####OOOOOO#OOO#O#O###O######           ",
"  ###OOO#OO###  ##   #$$ $# ##   #O###OOOO#O #### # ###         ",
"      #OO##    # ###$ $$#$ #### ##  #O#OOOOOOOO # #O#           ",
" # ##OOO#  X  #XX ###$$###  #  #   +XXXXXO  #O#O ## #### #      ",
"   ##OOO#XX  XXXX  ##$$ $$# #### $ +X XX++X  OOO# #  O #    #   ",
"# #OO#OOO XXXXXXXXX# $$ $$##   $$  X+++XXXX++ O   ## ##  #      ",
"  # ##OO +XXXXXXXXXX # #$#  $$$ $  XXX+++XXX+X  #O# ## ##O #    ",
" #OOOXXOO X+XXXXXXXX## # $##$$$$$  +X+XX+++++X X  X## ########  ",
"   O###XX X+XXXXXXXXX  $#### $$$  XXXX+X+++++XX+XX  ###OO# # #  ",
"   XOXOXXXXXXXXX+XXX     ###$$$$$$$++XXX+XXXXX+XXX# X##OO##O#  #",
"  OOX XXX X+X+XXXX@XX#$ ### ###$$+$ XXXX+XXX+XXXX+X#  ###OOOO#  ",
"#  O #X XXXXX+XX+@X@XXX#  #$ #$  $  +XX+X+X+XXXX++X  ##OO O##O# ",
"####OXXXX+X+X+X+@X@@@ XX  $$##$$$+$XXXXX++XXX+XXXXX#X # O#####  ",
" OOO#X++XX@X@@@@+@@+@XX$ $$  $$  +XXXXX+@@++XXXXXXX# X ###OO#OO#",
"# O OX+X+@ X@+XXX@@X@XXX$ $ $# $$XX+XX+X+XXX@XXXXXXX  ##  OO#O  ",
"O   + XX+@@@@@@@XX@X@X X $$$$$$ X$XX+XXXXX@X@X+XXXXX  ####  O# #",
"##O###@+@X@+++@@+X+@@  X#$$#$ $$XXXXX@X@X@@X@@X@X@XXX #### O  O ",
"   O ++++X@@@@X@X+++XXX #$$$#$$$$  +X@X@X@@ @XX@XX@ X####O  O O ",
"#O#X +@@@@XXX@X@@@XXXX X  $$#$# $@@@X++@@ +@@@X@@@@XX # ####O#O ",
" O OX+@++@@@X@X@@@@X@+X X##$ #  X X XX@XX@@@@@@+@@XX XX ##### OO",
" +O X ++@@@@X+@@@X@XXXX  #$  $$$$XXX@@@X@@@@@@@@@@XXXXX#### #O#O",
"#  +  @@@@@@@XX+ XX+@X+X$#$.$$.$$$X@XXX@X@@@@@@ X X X+X###  ## O",
" #  XX@@XX@@@@@@X@@XXXX   ..#$  $X X@X@X@@@@@@@@@X+XX  ### ###  ",
" O XXXXX@X@@@@@@@X+XXXXX  $ $.$.$ +X++@@X@@@@X@@ XXXX   ##    OO",
"# O+O X+XX@@@X@@@@@XX X $##$.$$$$X$XX+@@X@@@XX@X@XXXX # ####  O#",
"O OOOXX++@X@@X@@XX@+X X  $.$$..#$$+XXX+X XX@@@@XXXX  X   #### O ",
"O ##XX XX@X@+@XXX@X@+X+##$$$.$    $++ XX+X@XXX+XX++X#   ## ### #",
"OOO# +X+X@@@XXXXX@+XXX$$$$ $..  $$X XX+X X@+X@+XXXX+ $#  ## #O #",
" OOOXXXX X@XX+XX++XXX+$$$.$$.#. $ X XXXXXXXX@XXX++$  $$  # #  OO",
"OO OXXX+XXXXX+XXXXX X#X$#.$$.#. #$XXXXXXXX+XXXXXXXX$$ $  #   O O",
"OOO #XXXXX++XXXXXX++$#$$$$$$.$. $#XXXX+XXXX+XXXXX$X $$#$#   # O#",
"# OOO#XXX XX+XXXXX++   $$$.$$$  $$$XXXXXX+XXX+XX $oo$o#   ## ###",
"OOOO X ++XXXX+XXX+X######$$....$$#X XXXXXXXXXXX+Xoo$oo$#    ##  ",
"  OOOooooXo+XX+XX$X$  #$#$$...#$$   X XXX+XXXXXXXXo$    ##   ##O",
"  OOooooXooXXXXoX+$##$   $..$..#$#  #XXX++X+XXo+$$$ o# ##     OO",
"OOOoo oooXoXX+o+oX$o $$#.$...XX#$ .## XXXXXXo+o $oo o ##    OO##",
"O OOoooooXXooooX+o#$o$$..$.XXX . X$  X X+ oXoX+X$Xo$ $     # OO ",
"OO #Ooooooooooooooo$$#.$$$..X. $$#$## #XooooXooo$$#$   # # #   O",
"OOOO#o  ##Xooo$$oooo$$$$X.X..X$$... . Xo XoXXoo$#$$$$##       #O",
"OOOO## #ooo#oo$ooo$oo$$..$..X.. ..$  o$ooooooooo$o$#$X   + #  OO",
"O#O# ### ##o#Xoooooo#$$$ ..X$.. ..$$$oooooooo$ $ # $#XX##### O  ",
"OOO  ## ## ### ## $ $$#$. X..  X $$$$oooooo o#$$#$$$X##X+#X #OOO",
"## ####XX# ###$$$$###$#$ #X.#. .   #$ooo$  $$$ $$#$#X####X##  #O",
"OOO##+X+X#  ###  $$# # # # #$$.$.$  $o$$$#$ #$#######X XX##X#OO+",
"OOX####XX+X X  # ##  $$#$  ##$#.$####$$#$$#$$### ###XX+XX#+XXO  ",
" O #OX#XXX+XX  #$ #$$# #$#####$####$#$$$#$#$##### X#X+X+#+XXXO+O",
"  OOX# #XXX+X X$  X# $$$#########$#$#$$##### # # #+XX+XXX++XO+  ",
" OOO##X#XXXXXXXXX   $ $##$##########$##########  X+XXX+X++XO#+#O",
" OX+##X X++XX+ XXXX#X# ##$$$ $$$$$ $########  ##XXX+XXXX+XOXOO O",
"  ##OOX#+XXX+XXX XXX# X$ # # $$ $$$$# ##  ## XX +X+XXX+XXXOOO#O#",
"  OOO ### X++XXXXXXXXXXXX$ #   $ $$$### #  ###XXXXXXXX+ X +O O #",
"   O XOO+  +X +X+XXXXX XXXX  X $   $ #XXXXXX#XX++X+XXXXXO# # O# ",
"   ##OOX#XXXXXXXXXXX  XXX XXX  X XXXX #XXXXXXXXXXXX++X X###O# O ",
"    O##O+X+XXX++XXX+ +XX+X XXX XXXX X+X XXXX XXX++++XX OOOO###O#",
"      #OOOOXXX XXXX+XXXXXX+XXXX XXXXXXXXXX XXXXXXXX+X X+# #OO   ",
"     O#O# OX+ #+ XXXXX++XX+XXXXXXXX  XXXXX  XX X+X  OOOOOOO#O # ",
"      O OO##O#+# XXOXOXOXXXXXXXXXXX+XXXXXXX++XX++XX  +O #O#O    ",
"     ## OOOO OO ++X#OXOOX+XXXX+   ++XXXXXX+ XXXXX++#  O OO   #  ",
"       OO #OO # # # XOX+#XXXXX X O  XXXX O X#XXOXXXO#O#OO#      ",
"         O#OOOO ##OOO #OX##OOOOX XXX+OXXOX#XXOX # OOO#OO#  ##   ",
"          OOO O### # #OXOO##X OX+O  +X OOO#OOO# O#OOO### # ##   ",
"             OO ####O O##O###     O XXO  OO#O##OOO O##O### #    "
};
